# Blender v2.81 (sub 16) OBJ File: ''
# www.blender.org
mtllib avocad0.mtl
o Sphere_Sphere.001
v -0.000000 0.809017 0.587785
v 0.000000 0.309017 0.951057
v 0.000000 -0.309017 0.951057
v 0.000000 -0.809017 0.587785
v -0.345492 0.809017 0.475528
v -0.559017 0.309017 0.769421
v -0.559017 -0.309017 0.769421
v -0.345491 -0.809017 0.475528
v -0.559017 0.809017 0.181636
v -0.904509 0.309017 0.293893
v -0.904508 -0.309017 0.293893
v -0.559017 -0.809017 0.181636
v 0.000000 -1.000000 0.000000
v -0.559017 0.809017 -0.181636
v -0.904509 0.309017 -0.293892
v -0.904509 -0.309017 -0.293892
v -0.559017 -0.809017 -0.181636
v -0.345492 0.809017 -0.475528
v -0.559017 0.309017 -0.769421
v -0.559017 -0.309017 -0.769421
v -0.345492 -0.809017 -0.475528
v -0.000000 0.809017 -0.587785
v -0.000000 0.309017 -0.951056
v -0.000000 -0.309017 -0.951056
v -0.000000 -0.809017 -0.587785
v -0.000000 1.615213 0.587785
v -0.000000 1.806196 0.000000
v -0.345492 1.615213 0.475528
v -0.559017 1.615213 0.181636
v -0.559017 1.615213 -0.181636
v -0.345492 1.615213 -0.475528
v -0.000000 1.615213 -0.587785
vt 0.150000 0.000000
vt 0.200000 0.200000
vt 0.100000 0.200000
vt 0.200000 0.400000
vt 0.200000 0.600000
vt 0.100000 0.600000
vt 0.100000 0.400000
vt 0.100000 0.800000
vt 0.200000 0.800000
vt 0.200000 0.800000
vt 0.100000 0.800000
vt 0.050000 0.000000
vt 0.000000 0.200000
vt 0.000000 0.600000
vt 0.000000 0.400000
vt 0.900000 0.800000
vt 1.000000 0.800000
vt 1.000000 0.800000
vt 0.900000 0.800000
vt 0.000000 0.800000
vt 0.950000 0.000000
vt 1.000000 0.200000
vt 0.900000 0.200000
vt 1.000000 0.400000
vt 1.000000 0.600000
vt 0.900000 0.600000
vt 0.900000 0.400000
vt 0.000000 0.800000
vt 0.850000 0.000000
vt 0.800000 0.200000
vt 0.800000 0.600000
vt 0.800000 0.400000
vt 0.800000 0.800000
vt 0.750000 0.000000
vt 0.700000 0.200000
vt 0.700000 0.600000
vt 0.700000 0.400000
vt 0.700000 0.800000
vt 0.150000 1.000000
vt 0.050000 1.000000
vt 0.950000 1.000000
vt 0.850000 1.000000
vt 0.800000 0.800000
vt 0.750000 1.000000
vt 0.700000 0.800000
vn -0.0999 -0.9463 0.3075
vn -0.3090 -0.0000 0.9511
vn -0.2542 -0.5685 0.7824
vn -0.2542 0.5685 0.7824
vn -0.2616 -0.9463 0.1900
vn -0.8090 -0.0000 0.5878
vn -1.0000 0.0000 0.0000
vn -0.6656 -0.5685 0.4836
vn -0.6656 0.5685 0.4836
vn -0.3233 -0.9463 0.0000
vn -0.8227 -0.5685 0.0000
vn -0.8227 0.5685 0.0000
vn -0.2616 -0.9463 -0.1900
vn -0.8090 -0.0000 -0.5878
vn -0.6656 -0.5685 -0.4836
vn -0.6656 0.5685 -0.4836
vn -0.0999 -0.9463 -0.3075
vn -0.3090 -0.0000 -0.9511
vn -0.2542 -0.5685 -0.7824
vn -0.2542 0.5685 -0.7824
vn -0.0999 0.9463 0.3075
vn -0.2616 0.9463 0.1900
vn -0.3233 0.9463 0.0000
vn -0.2616 0.9463 -0.1900
vn -0.0999 0.9463 -0.3075
usemtl Material.003
s off
f 13/1/1 4/2/1 8/3/1
f 3/4/2 2/5/2 6/6/2 7/7/2
f 5/8/2 1/9/2 26/10/2 28/11/2
f 4/2/3 3/4/3 7/7/3 8/3/3
f 2/5/4 1/9/4 5/8/4 6/6/4
f 13/12/5 8/3/5 12/13/5
f 7/7/6 6/6/6 10/14/6 11/15/6
f 14/16/7 9/17/7 29/18/7 30/19/7
f 8/3/8 7/7/8 11/15/8 12/13/8
f 6/6/9 5/8/9 9/20/9 10/14/9
f 13/21/10 12/22/10 17/23/10
f 11/24/7 10/25/7 15/26/7 16/27/7
f 9/20/6 5/8/6 28/11/6 29/28/6
f 12/22/11 11/24/11 16/27/11 17/23/11
f 10/25/12 9/17/12 14/16/12 15/26/12
f 13/29/13 17/23/13 21/30/13
f 16/27/14 15/26/14 19/31/14 20/32/14
f 17/23/15 16/27/15 20/32/15 21/30/15
f 15/26/16 14/16/16 18/33/16 19/31/16
f 13/34/17 21/30/17 25/35/17
f 20/32/18 19/31/18 23/36/18 24/37/18
f 21/30/19 20/32/19 24/37/19 25/35/19
f 19/31/20 18/33/20 22/38/20 23/36/20
f 26/10/21 27/39/21 28/11/21
f 28/11/22 27/40/22 29/28/22
f 29/18/23 27/41/23 30/19/23
f 30/19/24 27/42/24 31/43/24
f 31/43/25 27/44/25 32/45/25
f 18/33/14 14/16/14 30/19/14 31/43/14
f 22/38/18 18/33/18 31/43/18 32/45/18
o Sphere.001_Sphere.003
v 0.000000 0.437239 -0.252440
v 0.000000 0.252440 -0.437239
v 0.000000 -0.000000 -0.504880
v 0.000000 -0.252440 -0.437239
v 0.000000 -0.437239 -0.252440
v -0.000000 0.504880 -0.000000
v 0.218619 0.437239 -0.126220
v 0.378660 0.252440 -0.218619
v 0.437239 -0.000000 -0.252440
v 0.378660 -0.252440 -0.218619
v 0.218619 -0.437239 -0.126220
v 0.218619 0.437239 0.126220
v 0.378660 0.252440 0.218619
v 0.437239 -0.000000 0.252440
v 0.378660 -0.252440 0.218619
v 0.218619 -0.437239 0.126220
v -0.000000 0.437239 0.252440
v -0.000000 0.252440 0.437238
v -0.000000 -0.000000 0.504880
v -0.000000 -0.252440 0.437238
v -0.000000 -0.437239 0.252440
v 0.000000 -0.504880 -0.000000
v -0.218619 0.437239 0.126220
v -0.378660 0.252440 0.218619
v -0.437239 -0.000000 0.252440
v -0.378660 -0.252440 0.218619
v -0.218619 -0.437239 0.126220
v -0.218619 0.437239 -0.126220
v -0.378660 0.252440 -0.218619
v -0.437239 -0.000000 -0.252440
v -0.378660 -0.252440 -0.218619
v -0.218619 -0.437239 -0.126220
vt 0.583333 0.000000
vt 0.666667 0.166667
vt 0.500000 0.166667
vt 0.666667 0.333333
vt 0.666667 0.500000
vt 0.500000 0.500000
vt 0.500000 0.333333
vt 0.666667 0.666667
vt 0.666667 0.833333
vt 0.500000 0.833333
vt 0.500000 0.666667
vt 0.583333 1.000000
vt 0.333333 0.333333
vt 0.333333 0.166667
vt 0.333333 0.666667
vt 0.333333 0.500000
vt 0.416667 1.000000
vt 0.333333 0.833333
vt 0.416667 0.000000
vt 0.166667 0.333333
vt 0.166667 0.166667
vt 0.166667 0.666667
vt 0.166667 0.500000
vt 0.250000 1.000000
vt 0.166667 0.833333
vt 0.250000 0.000000
vt 0.000000 0.333333
vt 0.000000 0.166667
vt 0.000000 0.666667
vt 0.000000 0.500000
vt 0.083333 1.000000
vt 0.000000 0.833333
vt 0.083333 0.000000
vt 1.000000 0.166667
vt 1.000000 0.333333
vt 0.833333 0.333333
vt 0.833333 0.166667
vt 1.000000 0.500000
vt 1.000000 0.666667
vt 0.833333 0.666667
vt 0.833333 0.500000
vt 1.000000 0.833333
vt 0.916667 1.000000
vt 0.833333 0.833333
vt 0.916667 0.000000
vt 0.750000 1.000000
vt 0.750000 0.000000
vn 0.1478 -0.9553 -0.2560
vn 0.4871 -0.2260 -0.8436
vn 0.3780 0.6547 -0.6547
vn 0.3780 -0.6547 -0.6547
vn 0.4871 0.2260 -0.8436
vn 0.1478 0.9553 -0.2560
vn 0.7559 -0.6547 0.0000
vn 0.9741 0.2260 0.0000
vn 0.2956 0.9553 0.0000
vn 0.2956 -0.9553 -0.0000
vn 0.9741 -0.2260 0.0000
vn 0.7559 0.6547 0.0000
vn 0.3780 -0.6547 0.6547
vn 0.4871 0.2260 0.8436
vn 0.1478 0.9553 0.2560
vn 0.1478 -0.9553 0.2560
vn 0.4871 -0.2260 0.8436
vn 0.3780 0.6547 0.6547
vn -0.3780 -0.6547 0.6547
vn -0.4871 0.2260 0.8436
vn -0.1478 0.9553 0.2560
vn -0.1478 -0.9553 0.2560
vn -0.4871 -0.2260 0.8436
vn -0.3780 0.6547 0.6547
vn -0.7559 -0.6547 -0.0000
vn -0.9741 0.2260 -0.0000
vn -0.2956 0.9553 0.0000
vn -0.2956 -0.9553 0.0000
vn -0.9741 -0.2260 -0.0000
vn -0.7559 0.6547 -0.0000
vn -0.4871 0.2260 -0.8436
vn -0.1478 0.9553 -0.2560
vn -0.1478 -0.9553 -0.2560
vn -0.4871 -0.2260 -0.8436
vn -0.3780 0.6547 -0.6547
vn -0.3780 -0.6547 -0.6547
usemtl Material.001
s off
f 54/46/26 37/47/26 43/48/26
f 36/49/27 35/50/27 41/51/27 42/52/27
f 34/53/28 33/54/28 39/55/28 40/56/28
f 37/47/29 36/49/29 42/52/29 43/48/29
f 35/50/30 34/53/30 40/56/30 41/51/30
f 33/54/31 38/57/31 39/55/31
f 43/48/32 42/52/32 47/58/32 48/59/32
f 41/51/33 40/56/33 45/60/33 46/61/33
f 39/55/34 38/62/34 44/63/34
f 54/64/35 43/48/35 48/59/35
f 42/52/36 41/51/36 46/61/36 47/58/36
f 40/56/37 39/55/37 44/63/37 45/60/37
f 48/59/38 47/58/38 52/65/38 53/66/38
f 46/61/39 45/60/39 50/67/39 51/68/39
f 44/63/40 38/69/40 49/70/40
f 54/71/41 48/59/41 53/66/41
f 47/58/42 46/61/42 51/68/42 52/65/42
f 45/60/43 44/63/43 49/70/43 50/67/43
f 53/66/44 52/65/44 58/72/44 59/73/44
f 51/68/45 50/67/45 56/74/45 57/75/45
f 49/70/46 38/76/46 55/77/46
f 54/78/47 53/66/47 59/73/47
f 52/65/48 51/68/48 57/75/48 58/72/48
f 50/67/49 49/70/49 55/77/49 56/74/49
f 59/79/50 58/80/50 63/81/50 64/82/50
f 57/83/51 56/84/51 61/85/51 62/86/51
f 55/87/52 38/88/52 60/89/52
f 54/90/53 59/79/53 64/82/53
f 58/80/54 57/83/54 62/86/54 63/81/54
f 56/84/55 55/87/55 60/89/55 61/85/55
f 62/86/56 61/85/56 34/53/56 35/50/56
f 60/89/57 38/91/57 33/54/57
f 54/92/58 64/82/58 37/47/58
f 63/81/59 62/86/59 35/50/59 36/49/59
f 61/85/60 60/89/60 33/54/60 34/53/60
f 64/82/61 63/81/61 36/49/61 37/47/61
o Sphere.002_Sphere.004
v -0.000000 0.809017 0.587785
v 0.000000 0.309017 0.951057
v 0.000000 -0.309017 0.951057
v 0.000000 -0.809017 0.587785
v 0.000000 -1.000000 0.000000
v -0.000000 0.809017 -0.587785
v -0.000000 0.309017 -0.951056
v -0.000000 -0.309017 -0.951056
v -0.000000 -0.809017 -0.587785
v -0.000000 1.615213 0.587785
v -0.000000 1.806196 0.000000
v -0.000000 1.615213 -0.587785
vt 0.200000 0.800000
vt 0.700000 0.800000
vt 0.700000 0.800000
vt 0.200000 0.800000
vt 0.750000 1.000000
vt 0.200000 0.600000
vt 0.700000 0.600000
vt 0.200000 0.400000
vt 0.700000 0.400000
vt 0.200000 0.200000
vt 0.700000 0.200000
vt 0.150000 0.000000
vn 1.0000 0.0000 0.0000
usemtl Material.002
s off
f 65/93/62 70/94/62 76/95/62 74/96/62
f 76/95/62 75/97/62 74/96/62
f 66/98/62 71/99/62 70/94/62 65/93/62
f 67/100/62 72/101/62 71/99/62 66/98/62
f 68/102/62 73/103/62 72/101/62 67/100/62
f 73/103/62 68/102/62 69/104/62
